<svg version="1.1" id="Layer_1" xmlns="http://www.w3.org/2000/svg" xmlns:xlink="http://www.w3.org/1999/xlink" x="0px" y="0px"
	 width="100%" viewBox="0 0 360 360" enable-background="new 0 0 360 360" xml:space="preserve">
<path fill="#FFFFFF" opacity="1.000000" stroke="none" 
	d="
M206.000000,361.000000 
	C137.356995,361.000000 69.214005,361.000000 1.035501,361.000000 
	C1.035501,241.065338 1.035501,121.130669 1.035501,1.097996 
	C120.892937,1.097996 240.785980,1.097996 360.839508,1.097996 
	C360.839508,120.999825 360.839508,240.999893 360.839508,361.000000 
	C309.464081,361.000000 257.982056,361.000000 206.000000,361.000000 
M57.072144,183.656555 
	C58.703358,188.105164 60.334572,192.553772 61.985199,197.012924 
	C61.985199,197.012924 61.995060,197.032700 62.036930,197.800095 
	C63.117325,200.089249 64.278854,202.344177 65.261414,204.674591 
	C67.384781,209.710739 69.416359,214.785568 70.842972,219.335098 
	C62.096333,212.478088 55.169239,203.958664 49.425842,194.585480 
	C47.108402,190.803436 45.302280,190.783829 42.024349,192.820053 
	C33.127796,198.346558 24.117405,203.689743 15.153329,209.107574 
	C9.543775,212.497940 8.833890,213.909164 12.173282,219.050446 
	C17.023438,226.517639 21.909739,234.080429 27.752249,240.751495 
	C33.954288,247.833038 41.712425,253.540894 48.023308,260.540771 
	C55.462143,268.791779 65.079437,273.657166 74.434952,278.801483 
	C81.891571,282.901672 89.942863,286.376587 98.148026,288.555634 
	C111.494911,292.100128 125.114708,294.780670 138.754105,296.995880 
	C146.379501,298.234283 154.276459,297.800537 161.658966,298.736633 
	C147.664688,302.263153 133.670410,305.789673 119.249466,309.423706 
	C119.249466,323.147034 119.249466,337.868103 119.249466,352.723938 
	C138.511307,354.181763 156.836899,350.883026 174.253952,343.731812 
	C185.205505,339.235229 195.785858,333.541595 205.865219,327.306000 
	C213.986389,322.281891 221.504120,316.072937 228.559128,309.594238 
	C235.498306,303.221954 241.805664,296.087433 247.839554,288.829529 
	C251.881378,283.967804 255.206039,278.449402 258.406555,272.965088 
	C261.841095,267.079834 264.754700,260.890594 268.274597,255.654083 
	C267.202118,260.398041 266.522980,265.275024 264.973389,269.857605 
	C261.955658,278.781799 258.367889,287.511932 255.222488,296.395477 
	C254.655304,297.997345 254.368042,301.080078 255.148361,301.569000 
	C265.908051,308.310699 276.910797,314.662567 287.775482,321.239624 
	C291.146057,323.280029 292.355377,320.722443 293.255981,318.668213 
	C297.235229,309.591766 301.604706,300.608917 304.608582,291.201263 
	C308.699615,278.388794 312.629944,265.363220 312.775848,251.740005 
	C312.877899,242.208099 312.624969,232.610916 311.596527,223.144379 
	C310.392365,212.060577 308.355347,201.053833 306.347046,190.074493 
	C304.196228,178.315811 299.060272,167.661667 293.499176,157.183121 
	C291.188293,152.828796 289.302826,148.248703 287.849396,143.298691 
	C296.706238,151.482071 305.564240,159.589401 310.753876,170.907745 
	C312.986359,175.776611 314.832642,175.836044 319.616913,172.750412 
	C321.666016,171.428848 323.662170,170.019684 325.755432,168.772949 
	C333.415009,164.210938 341.184082,159.824219 348.699432,155.037796 
	C349.832703,154.316010 350.792694,151.316315 350.216248,150.221573 
	C343.370209,137.220703 334.238007,125.713432 324.206512,115.189697 
	C317.104462,107.739105 308.123932,102.070831 299.936401,95.665184 
	C288.281464,86.546806 274.300873,81.982330 260.891296,76.518890 
	C252.260406,73.002426 242.960693,70.398422 233.730042,69.265732 
	C221.926971,67.817390 209.891586,68.262161 198.228867,67.197296 
	C210.361877,62.435749 222.949524,59.488792 235.930222,58.695477 
	C239.922363,58.451492 241.805634,56.833393 241.904175,53.374107 
	C242.131470,45.395889 242.079681,37.403622 241.905640,29.422188 
	C241.786636,23.965145 241.270691,18.516760 240.901825,12.575206 
	C234.012589,13.109901 227.919617,13.409218 221.868729,14.085208 
	C204.227997,16.055986 187.298981,20.534451 171.576111,28.996704 
	C160.072800,35.187935 148.867233,41.695873 138.923676,50.431915 
	C127.917343,60.101669 117.702095,70.289711 109.815872,82.703835 
	C105.008568,90.271255 100.027405,97.728233 94.466568,104.884674 
	C97.035011,92.725998 100.275673,80.807693 105.842545,69.584381 
	C106.557510,68.142952 105.927559,64.648460 104.753212,63.873024 
	C94.461716,57.077427 83.958572,50.593250 73.352432,44.295876 
	C72.152504,43.583420 68.766960,44.041676 68.362267,44.892662 
	C64.742416,52.504406 61.153736,60.181267 58.351269,68.119759 
	C54.041977,80.326607 51.535038,92.946823 49.839115,105.852058 
	C47.895298,120.643707 47.459606,135.293457 49.110100,150.776413 
	C49.401344,151.829056 49.692593,152.881714 50.134125,154.613297 
	C50.160454,155.075455 50.186783,155.537613 50.064972,156.811111 
	C51.128704,161.547424 52.192440,166.283737 53.105213,171.544907 
	C53.409279,171.707840 53.713345,171.870758 54.136223,172.850433 
	C55.117981,176.181396 56.099739,179.512375 57.038662,182.920898 
	C57.038662,182.920898 57.124088,182.944382 57.072144,183.656555 
z"/>
<path fill="#7D7E80" opacity="1.000000" stroke="none" 
	d="
M267.895630,254.833984 
	C264.754700,260.890594 261.841095,267.079834 258.406555,272.965088 
	C255.206039,278.449402 251.881378,283.967804 247.839554,288.829529 
	C241.805664,296.087433 235.498306,303.221954 228.559128,309.594238 
	C221.504120,316.072937 213.986389,322.281891 205.865219,327.306000 
	C195.785858,333.541595 185.205505,339.235229 174.253952,343.731812 
	C156.836899,350.883026 138.511307,354.181763 119.249466,352.723938 
	C119.249466,337.868103 119.249466,323.147034 119.249466,309.423706 
	C133.670410,305.789673 147.664688,302.263153 162.239716,298.360718 
	C169.380432,296.178162 176.094147,294.683441 180.211487,290.205597 
	C169.767349,287.906799 158.819412,286.119324 148.256226,283.020355 
	C133.885178,278.804260 121.769165,270.431427 110.927185,259.810181 
	C110.516212,259.379211 110.217644,259.193054 109.957275,259.004761 
	C109.995483,259.002594 109.998146,259.079102 109.891434,258.835449 
	C109.492760,258.404144 109.200813,258.216492 108.949951,258.036102 
	C108.991028,258.043396 108.967140,258.123352 108.858246,257.799255 
	C106.565781,255.257584 104.382195,253.040009 102.040634,250.600739 
	C101.552216,250.271255 101.221764,250.163437 100.926147,250.027008 
	C100.960968,249.998398 100.934105,250.084457 100.904709,249.803833 
	C100.555214,249.370834 100.235123,249.218460 99.960342,249.058014 
	C100.005661,249.049957 99.932831,249.106262 99.984283,248.768036 
	C99.261238,247.241714 98.486748,246.053635 97.572403,244.517883 
	C92.547760,233.162521 86.699188,222.467682 83.000923,211.074829 
	C77.250916,193.361420 77.981010,175.099487 82.249519,156.734161 
	C83.953339,151.976990 85.389221,147.467224 87.005341,142.647247 
	C87.747971,141.136673 88.370621,139.960495 88.863670,138.732285 
	C95.862610,121.297554 107.562256,107.538864 122.415649,96.381226 
	C133.392685,88.135437 145.948914,82.991951 159.394928,78.925598 
	C162.311584,78.720337 164.816040,78.632401 167.243835,78.154816 
	C185.111084,74.640099 202.390961,78.036911 218.435745,85.144089 
	C229.472092,90.032738 239.011414,98.300949 249.288620,105.268364 
	C249.547943,105.726616 249.797928,105.875702 250.059723,105.950226 
	C250.012115,105.975121 250.076401,105.889046 250.166809,106.136353 
	C250.545456,106.570396 250.833679,106.757126 251.076477,106.944351 
	C251.031052,106.944832 251.048660,106.855705 251.175690,107.136490 
	C251.842865,107.659782 252.383041,107.902283 252.925751,108.101379 
	C252.928314,108.057976 252.844482,108.081093 252.841476,108.444923 
	C255.459427,111.919830 258.080383,115.030907 260.848083,118.458565 
	C269.028687,129.940659 274.687531,142.299911 278.347687,155.464478 
	C284.134491,176.278030 282.776337,197.348663 278.430481,218.131638 
	C275.832306,230.556763 271.466736,242.612305 267.895630,254.833984 
M236.511398,205.993622 
	C238.008301,199.333801 240.356766,192.732513 240.819519,186.001587 
	C241.701599,173.171616 238.560745,161.192963 231.647781,150.019760 
	C219.672974,130.665268 202.816727,120.102684 179.957947,120.602707 
	C162.714523,120.979904 148.073624,127.927010 136.545181,140.960434 
	C127.920738,150.710739 122.344337,161.958969 121.053963,174.975677 
	C119.365486,192.008286 123.517609,207.466614 134.004639,221.245392 
	C145.298920,236.084732 160.228653,243.897263 178.651077,244.948593 
	C194.997452,245.881439 209.057022,239.884918 221.131683,229.231186 
	C228.067383,223.111679 232.679184,215.226578 236.511398,205.993622 
z"/>
<path fill="#066EBA" opacity="1.000000" stroke="none" 
	d="
M158.947250,78.862518 
	C145.948914,82.991951 133.392685,88.135437 122.415649,96.381226 
	C107.562256,107.538864 95.862610,121.297554 88.863670,138.732285 
	C88.370621,139.960495 87.747971,141.136673 86.668297,142.659180 
	C85.472984,142.985916 84.794968,142.990540 84.143867,142.616455 
	C87.821976,129.903442 91.473152,117.569130 95.124336,105.234825 
	C100.027405,97.728233 105.008568,90.271255 109.815872,82.703835 
	C117.702095,70.289711 127.917343,60.101669 138.923676,50.431915 
	C148.867233,41.695873 160.072800,35.187935 171.576111,28.996704 
	C187.298981,20.534451 204.227997,16.055986 221.868729,14.085208 
	C227.919617,13.409218 234.012589,13.109901 240.901825,12.575206 
	C241.270691,18.516760 241.786636,23.965145 241.905640,29.422188 
	C242.079681,37.403622 242.131470,45.395889 241.904175,53.374107 
	C241.805634,56.833393 239.922363,58.451492 235.930222,58.695477 
	C222.949524,59.488792 210.361877,62.435749 197.717224,67.658447 
	C191.810532,69.472092 186.377533,70.691010 181.029602,72.209465 
	C173.635254,74.308968 166.304977,76.634048 158.947250,78.862518 
z"/>
<path fill="#040404" opacity="1.000000" stroke="none" 
	d="
M159.394928,78.925598 
	C166.304977,76.634048 173.635254,74.308968 181.029602,72.209465 
	C186.377533,70.691010 191.810532,69.472092 197.580963,68.005341 
	C209.891586,68.262161 221.926971,67.817390 233.730042,69.265732 
	C242.960693,70.398422 252.260406,73.002426 260.891296,76.518890 
	C274.300873,81.982330 288.281464,86.546806 299.936401,95.665184 
	C308.123932,102.070831 317.104462,107.739105 324.206512,115.189697 
	C334.238007,125.713432 343.370209,137.220703 350.216248,150.221573 
	C350.792694,151.316315 349.832703,154.316010 348.699432,155.037796 
	C341.184082,159.824219 333.415009,164.210938 325.755432,168.772949 
	C323.662170,170.019684 321.666016,171.428848 319.616913,172.750412 
	C314.832642,175.836044 312.986359,175.776611 310.753876,170.907745 
	C305.564240,159.589401 296.706238,151.482071 287.483154,143.562637 
	C287.116882,143.826584 287.169830,143.934845 287.431274,143.602066 
	C287.044647,142.878845 286.396545,142.488388 285.519287,141.859177 
	C280.486755,136.422562 275.697876,131.211151 270.873474,126.032875 
	C268.637787,123.633194 266.332855,121.298004 263.918579,118.744904 
	C263.569397,118.317947 263.329651,118.117058 263.017792,117.702400 
	C262.741760,117.212357 262.506500,116.973488 262.207642,116.403069 
	C259.044220,113.408043 255.944366,110.744568 252.844482,108.081093 
	C252.844482,108.081093 252.928314,108.057976 252.799469,107.820953 
	C252.129974,107.341194 251.589310,107.098450 251.048660,106.855705 
	C251.048660,106.855705 251.031052,106.944832 250.999756,106.688362 
	C250.671112,106.250946 250.373764,106.070000 250.076401,105.889046 
	C250.076401,105.889046 250.012115,105.975121 249.973419,105.748108 
	C249.758865,105.270332 249.520584,105.116180 249.219849,105.058632 
	C239.011414,98.300949 229.472092,90.032738 218.435745,85.144089 
	C202.390961,78.036911 185.111084,74.640099 167.243835,78.154816 
	C164.816040,78.632401 162.311584,78.720337 159.394928,78.925598 
z"/>
<path fill="#EE111D" opacity="1.000000" stroke="none" 
	d="
M262.271210,116.734619 
	C262.506500,116.973488 262.741760,117.212357 263.057587,117.969170 
	C263.445190,118.635933 263.752258,118.784752 264.059326,118.933571 
	C266.332855,121.298004 268.637787,123.633194 270.873474,126.032875 
	C275.697876,131.211151 280.486755,136.422562 285.566528,142.209747 
	C286.285187,143.177673 286.727509,143.556259 287.169830,143.934845 
	C287.169830,143.934845 287.116882,143.826584 287.170380,143.798920 
	C289.302826,148.248703 291.188293,152.828796 293.499176,157.183121 
	C299.060272,167.661667 304.196228,178.315811 306.347046,190.074493 
	C308.355347,201.053833 310.392365,212.060577 311.596527,223.144379 
	C312.624969,232.610916 312.877899,242.208099 312.775848,251.740005 
	C312.629944,265.363220 308.699615,278.388794 304.608582,291.201263 
	C301.604706,300.608917 297.235229,309.591766 293.255981,318.668213 
	C292.355377,320.722443 291.146057,323.280029 287.775482,321.239624 
	C276.910797,314.662567 265.908051,308.310699 255.148361,301.569000 
	C254.368042,301.080078 254.655304,297.997345 255.222488,296.395477 
	C258.367889,287.511932 261.955658,278.781799 264.973389,269.857605 
	C266.522980,265.275024 267.202118,260.398041 268.085114,255.244034 
	C271.466736,242.612305 275.832306,230.556763 278.430481,218.131638 
	C282.776337,197.348663 284.134491,176.278030 278.347687,155.464478 
	C274.687531,142.299911 269.028687,129.940659 261.061768,118.172913 
	C261.509552,117.291992 261.890381,117.013306 262.271210,116.734619 
z"/>
<path fill="#FDF307" opacity="1.000000" stroke="none" 
	d="
M111.039597,260.054993 
	C121.769165,270.431427 133.885178,278.804260 148.256226,283.020355 
	C158.819412,286.119324 169.767349,287.906799 180.211487,290.205597 
	C176.094147,294.683441 169.380432,296.178162 162.435760,298.052521 
	C154.276459,297.800537 146.379501,298.234283 138.754105,296.995880 
	C125.114708,294.780670 111.494911,292.100128 98.148026,288.555634 
	C89.942863,286.376587 81.891571,282.901672 74.434952,278.801483 
	C65.079437,273.657166 55.462143,268.791779 48.023308,260.540771 
	C41.712425,253.540894 33.954288,247.833038 27.752249,240.751495 
	C21.909739,234.080429 17.023438,226.517639 12.173282,219.050446 
	C8.833890,213.909164 9.543775,212.497940 15.153329,209.107574 
	C24.117405,203.689743 33.127796,198.346558 42.024349,192.820053 
	C45.302280,190.783829 47.108402,190.803436 49.425842,194.585480 
	C55.169239,203.958664 62.096333,212.478088 71.125626,219.578979 
	C71.408287,219.822876 71.478401,219.916245 71.724388,220.172150 
	C72.701721,220.952545 73.433075,221.477051 74.439926,222.183136 
	C76.434731,224.284332 78.154030,226.203918 79.976418,228.353821 
	C80.202965,228.698364 80.326408,228.812622 80.528076,229.167236 
	C81.022339,229.644012 81.438393,229.880447 81.903709,230.074799 
	C81.952972,230.032715 81.885025,230.143051 81.905815,230.410004 
	C82.269943,231.034195 82.613281,231.391418 83.001205,231.864151 
	C83.045799,231.979645 83.273712,232.076447 83.296173,232.280151 
	C83.476418,232.748993 83.709190,232.868866 84.126701,233.081604 
	C84.502090,233.541672 84.767708,233.763657 85.082230,234.283630 
	C85.769638,235.018021 86.408142,235.454391 87.201721,236.219360 
	C87.861404,237.068100 88.366020,237.588257 88.776749,238.210800 
	C88.682854,238.313171 88.829971,238.549103 88.829971,238.549103 
	C88.829971,238.549103 89.108391,238.538605 89.195648,238.850174 
	C89.875282,239.767288 90.467651,240.372833 91.122887,241.220016 
	C91.376701,241.771820 91.654137,241.934692 92.147751,242.231659 
	C93.168907,243.352585 94.060379,244.192139 95.040085,245.370117 
	C96.729828,246.841095 98.331329,247.973679 99.932831,249.106262 
	C99.932831,249.106262 100.005661,249.049957 99.816002,249.429291 
	C100.062263,249.900558 100.498184,249.992508 100.934105,250.084457 
	C100.934105,250.084457 100.960968,249.998398 100.656769,250.324432 
	C100.869331,251.215485 101.386086,251.780472 102.012253,252.652954 
	C104.403481,254.681412 106.685310,256.402374 108.967140,258.123352 
	C108.967140,258.123352 108.991028,258.043396 109.013336,258.308594 
	C109.356476,258.742218 109.677307,258.910675 109.998146,259.079102 
	C109.998146,259.079102 109.995483,259.002594 110.053612,259.261047 
	C110.421028,259.697998 110.730316,259.876495 111.039597,260.054993 
z"/>
<path fill="#06AC58" opacity="1.000000" stroke="none" 
	d="
M91.060028,240.978378 
	C90.467651,240.372833 89.875282,239.767288 89.182358,238.765854 
	C89.081795,238.369965 88.870636,238.108429 88.870636,238.108429 
	C88.366020,237.588257 87.861404,237.068100 87.166084,235.905426 
	C86.328033,234.837158 85.680679,234.411392 85.033325,233.985626 
	C84.767708,233.763657 84.502090,233.541672 84.076797,232.891327 
	C83.780098,232.205109 83.565628,232.076279 83.273712,232.076447 
	C83.273712,232.076447 83.045799,231.979645 83.017960,231.590240 
	C82.621758,230.848251 82.253395,230.495651 81.885025,230.143051 
	C81.885025,230.143051 81.952972,230.032715 81.846405,229.825470 
	C81.309837,229.387772 80.879852,229.157318 80.449860,228.926880 
	C80.326408,228.812622 80.202965,228.698364 79.987183,227.988068 
	C75.517792,219.440689 71.207840,211.451233 66.722168,203.561646 
	C65.402153,201.239960 63.584595,199.201157 61.995060,197.032700 
	C61.995060,197.032700 61.985199,197.012924 61.989525,196.597717 
	C60.370594,191.769791 58.747341,187.357086 57.124088,182.944382 
	C57.124088,182.944382 57.038662,182.920898 57.050591,182.490814 
	C55.297619,173.730408 53.552425,165.395721 51.713730,157.081741 
	C51.614365,156.632446 50.731342,156.356445 50.213112,155.999771 
	C50.186783,155.537613 50.160454,155.075455 50.335442,154.088531 
	C50.104023,152.394684 49.671280,151.225632 49.238541,150.056564 
	C47.459606,135.293457 47.895298,120.643707 49.839115,105.852058 
	C51.535038,92.946823 54.041977,80.326607 58.351269,68.119759 
	C61.153736,60.181267 64.742416,52.504406 68.362267,44.892662 
	C68.766960,44.041676 72.152504,43.583420 73.352432,44.295876 
	C83.958572,50.593250 94.461716,57.077427 104.753212,63.873024 
	C105.927559,64.648460 106.557510,68.142952 105.842545,69.584381 
	C100.275673,80.807693 97.035011,92.725998 94.795456,105.059753 
	C91.473152,117.569130 87.821976,129.903442 83.960060,142.968735 
	C83.160080,148.126999 82.570824,152.554276 81.981575,156.981552 
	C77.981010,175.099487 77.250916,193.361420 83.000923,211.074829 
	C86.699188,222.467682 92.547760,233.162521 97.106644,244.562347 
	C96.171120,244.980225 95.561478,245.005966 94.951843,245.031708 
	C94.060379,244.192139 93.168907,243.352585 92.069870,242.000565 
	C91.673027,241.195221 91.405602,241.025299 91.060028,240.978378 
z"/>
<path fill="#35B34D" opacity="1.000000" stroke="none" 
	d="
M62.015995,197.416397 
	C63.584595,199.201157 65.402153,201.239960 66.722168,203.561646 
	C71.207840,211.451233 75.517792,219.440689 79.884087,227.757767 
	C78.154030,226.203918 76.434731,224.284332 74.359917,221.732849 
	C73.162407,220.706070 72.320404,220.311157 71.478401,219.916245 
	C71.478401,219.916245 71.408287,219.822876 71.446884,219.833740 
	C69.416359,214.785568 67.384781,209.710739 65.261414,204.674591 
	C64.278854,202.344177 63.117325,200.089249 62.015995,197.416397 
z"/>
<path fill="#35B34D" opacity="1.000000" stroke="none" 
	d="
M50.139038,156.405441 
	C50.731342,156.356445 51.614365,156.632446 51.713730,157.081741 
	C53.552425,165.395721 55.297619,173.730408 57.072010,182.452026 
	C56.099739,179.512375 55.117981,176.181396 54.001274,172.237823 
	C53.726395,171.359512 53.523014,171.157791 53.256176,171.020050 
	C52.192440,166.283737 51.128704,161.547424 50.139038,156.405441 
z"/>
<path fill="#35B34D" opacity="1.000000" stroke="none" 
	d="
M57.098114,183.300476 
	C58.747341,187.357086 60.370594,191.769791 61.979813,196.592438 
	C60.334572,192.553772 58.703358,188.105164 57.098114,183.300476 
z"/>
<path fill="#35B34D" opacity="1.000000" stroke="none" 
	d="
M49.174320,150.416489 
	C49.671280,151.225632 50.104023,152.394684 50.260300,153.749054 
	C49.692593,152.881714 49.401344,151.829056 49.174320,150.416489 
z"/>
<path fill="#06AC58" opacity="1.000000" stroke="none" 
	d="
M53.180695,171.282471 
	C53.523014,171.157791 53.726395,171.359512 53.941868,171.829437 
	C53.713345,171.870758 53.409279,171.707840 53.180695,171.282471 
z"/>
<path fill="#FFFFFF" opacity="1.000000" stroke="none" 
	d="
M236.310638,206.329956 
	C232.679184,215.226578 228.067383,223.111679 221.131683,229.231186 
	C209.057022,239.884918 194.997452,245.881439 178.651077,244.948593 
	C160.228653,243.897263 145.298920,236.084732 134.004639,221.245392 
	C123.517609,207.466614 119.365486,192.008286 121.053963,174.975677 
	C122.344337,161.958969 127.920738,150.710739 136.545181,140.960434 
	C148.073624,127.927010 162.714523,120.979904 179.957947,120.602707 
	C202.816727,120.102684 219.672974,130.665268 231.647781,150.019760 
	C238.560745,161.192963 241.701599,173.171616 240.819519,186.001587 
	C240.356766,192.732513 238.008301,199.333801 236.310638,206.329956 
M187.314484,159.339874 
	C186.759079,156.597015 186.203659,153.854156 185.580048,150.774460 
	C182.962006,151.331070 180.609283,151.831253 177.766937,152.435547 
	C178.385101,156.093567 179.065536,159.584061 179.549576,163.101593 
	C180.420807,169.432770 181.545151,175.762054 181.855286,182.126663 
	C182.087692,186.896698 177.810760,189.417145 173.738846,186.980942 
	C171.411316,185.588364 169.191772,183.114059 168.194427,180.618851 
	C166.830780,177.207108 166.741806,173.298630 165.989120,169.627151 
	C164.634415,163.019119 163.192535,156.428955 161.767929,149.741425 
	C154.262955,152.301178 154.440216,152.265106 155.730652,158.607590 
	C159.289001,176.096924 162.176483,193.678757 162.003799,211.616150 
	C161.980164,214.072617 162.000534,216.529526 162.000534,219.182083 
	C164.829025,219.305603 167.123047,219.405792 169.578339,219.513016 
	C169.578339,211.245804 169.578339,203.179840 169.578339,193.884995 
	C177.421463,199.926224 182.712219,195.896301 187.406815,190.610489 
	C188.624710,191.583603 189.346466,192.294388 190.187653,192.810562 
	C195.441696,196.034531 200.925278,199.255402 207.014175,195.323883 
	C212.767395,191.609116 217.213486,185.503311 215.123627,177.139511 
	C213.429291,170.358582 211.434998,163.606567 208.941635,157.083344 
	C206.048950,149.515366 205.550385,149.575851 198.963165,154.244614 
	C202.623260,162.821121 206.651215,171.290802 205.877701,180.972046 
	C205.440216,186.447372 200.443726,189.410080 196.258759,186.546585 
	C194.477219,185.327606 192.661453,183.296265 192.114197,181.291992 
	C190.215866,174.339600 188.867371,167.237076 187.314484,159.339874 
z"/>
<path fill="#1D7C9A" opacity="1.000000" stroke="none" 
	d="
M82.249519,156.734161 
	C82.570824,152.554276 83.160080,148.126999 83.933136,143.347443 
	C84.794968,142.990540 85.472984,142.985916 86.488052,142.969391 
	C85.389221,147.467224 83.953339,151.976990 82.249519,156.734161 
z"/>
<path fill="#AB1D23" opacity="1.000000" stroke="none" 
	d="
M262.207642,116.403069 
	C261.890381,117.013306 261.509552,117.291992 260.915039,117.856331 
	C258.080383,115.030907 255.459427,111.919830 252.841476,108.444923 
	C255.944366,110.744568 259.044220,113.408043 262.207642,116.403069 
z"/>
<path fill="#4CB04B" opacity="1.000000" stroke="none" 
	d="
M108.858246,257.799255 
	C106.685310,256.402374 104.403481,254.681412 102.073715,252.269470 
	C102.083389,251.326492 102.141006,251.074448 102.198624,250.822418 
	C104.382195,253.040009 106.565781,255.257584 108.858246,257.799255 
z"/>
<path fill="#35B34D" opacity="1.000000" stroke="none" 
	d="
M95.040085,245.370117 
	C95.561478,245.005966 96.171120,244.980225 97.246506,244.910004 
	C98.486748,246.053635 99.261238,247.241714 99.984283,248.768036 
	C98.331329,247.973679 96.729828,246.841095 95.040085,245.370117 
z"/>
<path fill="#35B34D" opacity="1.000000" stroke="none" 
	d="
M102.040642,250.600739 
	C102.141006,251.074448 102.083389,251.326492 101.964310,251.962006 
	C101.386086,251.780472 100.869331,251.215485 100.621948,250.353058 
	C101.221764,250.163437 101.552216,250.271255 102.040642,250.600739 
z"/>
<path fill="#AB1D23" opacity="1.000000" stroke="none" 
	d="
M251.175690,107.136490 
	C251.589310,107.098450 252.129974,107.341194 252.796906,107.864365 
	C252.383041,107.902283 251.842865,107.659782 251.175690,107.136490 
z"/>
<path fill="#AB1D23" opacity="1.000000" stroke="none" 
	d="
M249.288620,105.268364 
	C249.520584,105.116180 249.758865,105.270332 250.021027,105.723221 
	C249.797928,105.875702 249.547943,105.726616 249.288620,105.268364 
z"/>
<path fill="#35B34D" opacity="1.000000" stroke="none" 
	d="
M100.904709,249.803833 
	C100.498184,249.992508 100.062263,249.900558 99.770683,249.437347 
	C100.235123,249.218460 100.555214,249.370834 100.904709,249.803833 
z"/>
<path fill="#4CB04B" opacity="1.000000" stroke="none" 
	d="
M109.891434,258.835449 
	C109.677307,258.910675 109.356476,258.742218 108.972252,258.301300 
	C109.200813,258.216492 109.492760,258.404144 109.891434,258.835449 
z"/>
<path fill="#4CB04B" opacity="1.000000" stroke="none" 
	d="
M110.927193,259.810181 
	C110.730316,259.876495 110.421028,259.697998 110.015404,259.263184 
	C110.217644,259.193054 110.516212,259.379211 110.927193,259.810181 
z"/>
<path fill="#AB1D23" opacity="1.000000" stroke="none" 
	d="
M250.166809,106.136353 
	C250.373764,106.070000 250.671112,106.250946 251.045197,106.687881 
	C250.833679,106.757126 250.545456,106.570396 250.166809,106.136353 
z"/>
<path fill="#FFFFFF" opacity="1.000000" stroke="none" 
	d="
M287.431274,143.602066 
	C286.727509,143.556259 286.285187,143.177673 285.795654,142.448517 
	C286.396545,142.488388 287.044647,142.878845 287.431274,143.602066 
z"/>
<path fill="#AB1D23" opacity="1.000000" stroke="none" 
	d="
M263.918579,118.744904 
	C263.752258,118.784752 263.445190,118.635933 263.098328,118.220345 
	C263.329651,118.117058 263.569397,118.317947 263.918579,118.744904 
z"/>
<path fill="#35B34D" opacity="1.000000" stroke="none" 
	d="
M85.082230,234.283646 
	C85.680679,234.411392 86.328033,234.837158 87.011017,235.576843 
	C86.408142,235.454391 85.769638,235.018021 85.082230,234.283646 
z"/>
<path fill="#FFFFFF" opacity="1.000000" stroke="none" 
	d="
M71.724388,220.172150 
	C72.320404,220.311157 73.162407,220.706070 74.084412,221.551270 
	C73.433075,221.477051 72.701721,220.952545 71.724388,220.172150 
z"/>
<path fill="#35B34D" opacity="1.000000" stroke="none" 
	d="
M81.905815,230.410004 
	C82.253395,230.495651 82.621758,230.848251 82.973373,231.474762 
	C82.613281,231.391418 82.269943,231.034195 81.905815,230.410004 
z"/>
<path fill="#35B34D" opacity="1.000000" stroke="none" 
	d="
M80.528076,229.167236 
	C80.879852,229.157318 81.309837,229.387772 81.797134,229.867538 
	C81.438393,229.880447 81.022339,229.644012 80.528076,229.167236 
z"/>
<path fill="#35B34D" opacity="1.000000" stroke="none" 
	d="
M83.296173,232.280151 
	C83.565628,232.076279 83.780098,232.205109 83.967033,232.653214 
	C83.709190,232.868866 83.476418,232.748993 83.296173,232.280151 
z"/>
<path fill="#35B34D" opacity="1.000000" stroke="none" 
	d="
M88.776749,238.210800 
	C88.870636,238.108429 89.081795,238.369965 89.095093,238.454285 
	C89.108391,238.538605 88.829971,238.549103 88.829971,238.549103 
	C88.829971,238.549103 88.682854,238.313171 88.776749,238.210800 
z"/>
<path fill="#35B34D" opacity="1.000000" stroke="none" 
	d="
M91.122887,241.220016 
	C91.405602,241.025299 91.673027,241.195221 91.940186,241.719208 
	C91.654137,241.934692 91.376701,241.771820 91.122887,241.220016 
z"/>
<path fill="#7E7F81" opacity="1.000000" stroke="none" 
	d="
M187.312073,159.765778 
	C188.867371,167.237076 190.215866,174.339600 192.114197,181.291992 
	C192.661453,183.296265 194.477219,185.327606 196.258759,186.546585 
	C200.443726,189.410080 205.440216,186.447372 205.877701,180.972046 
	C206.651215,171.290802 202.623260,162.821121 198.963165,154.244614 
	C205.550385,149.575851 206.048950,149.515366 208.941635,157.083344 
	C211.434998,163.606567 213.429291,170.358582 215.123627,177.139511 
	C217.213486,185.503311 212.767395,191.609116 207.014175,195.323883 
	C200.925278,199.255402 195.441696,196.034531 190.187653,192.810562 
	C189.346466,192.294388 188.624710,191.583603 187.406815,190.610489 
	C182.712219,195.896301 177.421463,199.926224 169.578339,193.884995 
	C169.578339,203.179840 169.578339,211.245804 169.578339,219.513016 
	C167.123047,219.405792 164.829025,219.305603 162.000534,219.182083 
	C162.000534,216.529526 161.980164,214.072617 162.003799,211.616150 
	C162.176483,193.678757 159.289001,176.096924 155.730652,158.607590 
	C154.440216,152.265106 154.262955,152.301178 161.767929,149.741425 
	C163.192535,156.428955 164.634415,163.019119 165.989120,169.627151 
	C166.741806,173.298630 166.830780,177.207108 168.194427,180.618851 
	C169.191772,183.114059 171.411316,185.588364 173.738846,186.980942 
	C177.810760,189.417145 182.087692,186.896698 181.855286,182.126663 
	C181.545151,175.762054 180.420807,169.432770 179.549576,163.101593 
	C179.065536,159.584061 178.385101,156.093567 177.766937,152.435547 
	C180.609283,151.831253 182.962006,151.331070 185.580048,150.774460 
	C186.203659,153.854156 186.759079,156.597015 187.312073,159.765778 
z"/>
</svg>